<!-- Generated by IcoMoon.io -->
<svg version="1.1" xmlns="http://www.w3.org/2000/svg" width="22" height="32" viewBox="0 0 22 32">
<path fill="#575756" d="M16.226 17.509c0 1.126-0.912 2.038-2.038 2.038s-2.038-0.912-2.038-2.038c0-1.126 0.912-2.040 2.038-2.040s2.038 0.914 2.038 2.040zM18.095 27.905h2.365c1.589 0 1.589-1.589 1.589-1.589v-24.512c0-1.59-1.589-1.59-1.589-1.59h-14.541c-1.589 0-1.589 1.59-1.589 1.59v2.316h-2.365c-1.589 0-1.589 1.59-1.589 1.59v24.51c0 1.59 1.589 1.59 1.589 1.59h14.541c1.589 0 1.589-1.59 1.589-1.59zM18.095 25.937v-20.227c0-1.59-1.589-1.59-1.589-1.59h-10.917v-0.574c0 0 0-1.364 1.363-1.364h12.474c0 0 1.363 0 1.363 1.364v21.028c0 0 0 1.363-1.363 1.363z"></path>
</svg>
